<svg width="44" height="44" viewBox="0 0 44 44" fill="none" xmlns="http://www.w3.org/2000/svg">
<g clip-path="url(#clip0_69_45)">
<path d="M37.7573 40.0107L35.5243 14.7107C35.3566 12.8049 33.7863 11.3667 31.8723 11.3667C31.4326 11.3667 31.0748 11.7242 31.0748 12.1642V16.1086C31.0748 16.4991 30.7797 16.8401 30.3901 16.8648C29.9629 16.8923 29.6082 16.5541 29.6082 16.1333V7.60833C29.6082 3.41275 26.1954 0 21.9998 0C17.8043 0 14.3915 3.41275 14.3915 7.60833V11.3667H12.1273C10.2133 11.3667 8.64309 12.8049 8.47534 14.7107L6.24234 40.0107C6.05443 42.1488 7.74045 44 9.89526 44H34.1044C36.2595 44 37.9453 42.1485 37.7573 40.0107ZM17.7832 39.1417H12.4665C12.0615 39.1417 11.7332 38.8133 11.7332 38.4083C11.7332 38.0033 12.0615 37.675 12.4665 37.675H17.7832C18.1882 37.675 18.5165 38.0033 18.5165 38.4083C18.5165 38.8133 18.1882 39.1417 17.7832 39.1417ZM17.7832 35.475H12.4665C12.0615 35.475 11.7332 35.1467 11.7332 34.7417C11.7332 34.3367 12.0615 34.0083 12.4665 34.0083H17.7832C18.1882 34.0083 18.5165 34.3367 18.5165 34.7417C18.5165 35.1467 18.1882 35.475 17.7832 35.475ZM28.1415 11.3667H18.1223C17.6823 11.3667 17.3248 11.7242 17.3248 12.1642V16.1086C17.3248 16.4991 17.0297 16.8401 16.6401 16.8648C16.2129 16.8923 15.8582 16.5541 15.8582 16.1333V7.60833C15.8582 4.22217 18.6137 1.46667 21.9998 1.46667C25.386 1.46667 28.1415 4.22217 28.1415 7.60833V11.3667Z" fill="#DB3022"/>
</g>
<defs>
<clipPath id="clip0_69_45">
<rect width="44" height="44" fill="white"/>
</clipPath>
</defs>
</svg>
