<svg width="119" height="50" viewBox="0 0 119 50" fill="none" xmlns="http://www.w3.org/2000/svg">
<g clip-path="url(#clip0_384_87)">
<path d="M42.9049 45.4667L40.3674 16.7167C40.1768 14.551 38.3924 12.9167 36.2174 12.9167C35.7178 12.9167 35.3112 13.3229 35.3112 13.8229V18.3052C35.3112 18.749 34.9758 19.1365 34.5331 19.1646C34.0477 19.1958 33.6445 18.8115 33.6445 18.3333V8.64583C33.6445 3.87812 29.7664 0 24.9987 0C20.231 0 16.3529 3.87812 16.3529 8.64583V12.9167H13.7799C11.6049 12.9167 9.82056 14.551 9.62994 16.7167L7.09244 45.4667C6.8789 47.8964 8.79483 50 11.2435 50H38.7539C41.2029 50 43.1185 47.896 42.9049 45.4667ZM20.207 44.4792H14.1654C13.7051 44.4792 13.332 44.106 13.332 43.6458C13.332 43.1856 13.7051 42.8125 14.1654 42.8125H20.207C20.6672 42.8125 21.0404 43.1856 21.0404 43.6458C21.0404 44.106 20.6672 44.4792 20.207 44.4792ZM20.207 40.3125H14.1654C13.7051 40.3125 13.332 39.9394 13.332 39.4792C13.332 39.019 13.7051 38.6458 14.1654 38.6458H20.207C20.6672 38.6458 21.0404 39.019 21.0404 39.4792C21.0404 39.9394 20.6672 40.3125 20.207 40.3125ZM31.9779 12.9167H20.5924C20.0924 12.9167 19.6862 13.3229 19.6862 13.8229V18.3052C19.6862 18.749 19.3508 19.1365 18.9081 19.1646C18.4226 19.1958 18.0195 18.8115 18.0195 18.3333V8.64583C18.0195 4.79792 21.1508 1.66667 24.9987 1.66667C28.8466 1.66667 31.9779 4.79792 31.9779 8.64583V12.9167Z" fill="#DB3022"/>
</g>
<path d="M56.888 38H61.032V22.488H67.024V18.764H50.896V22.488H56.888V38ZM79.2788 23.524V32.176L79.2508 32.092C79.2508 33.66 77.9348 34.892 76.2268 34.892C74.6028 34.892 73.4828 33.66 73.4828 31.868V23.524H69.5348V32.736C69.5348 36.012 71.7748 38.336 74.9108 38.336C76.7868 38.336 78.4108 37.496 79.2788 36.18V38H83.3668V23.524H79.2788ZM100.958 23.524H96.254L90.878 29.768V18.428H86.79V38H90.878V34.444L92.614 32.568L96.198 38H100.902L95.33 29.936L100.958 23.524ZM112.474 23.524V32.176L112.446 32.092C112.446 33.66 111.13 34.892 109.422 34.892C107.798 34.892 106.678 33.66 106.678 31.868V23.524H102.73V32.736C102.73 36.012 104.97 38.336 108.106 38.336C109.982 38.336 111.606 37.496 112.474 36.18V38H116.562V23.524H112.474Z" fill="#DB3022"/>
<defs>
<clipPath id="clip0_384_87">
<rect width="50" height="50" fill="white"/>
</clipPath>
</defs>
</svg>
